
<svg version="1.0" xmlns="http://www.w3.org/2000/svg"
 width="1920.000000pt" height="1080.000000pt" viewBox="0 0 1920.000000 1080.000000"
 preserveAspectRatio="xMidYMid meet">

<g transform="translate(0.000000,1080.000000) scale(0.100000,-0.100000)"
fill="#000000" stroke="none" opacity="0.2">
<path d="M9720 10395 c-184 -24 -338 -44 -342 -44 -19 -2 -6 -31 15 -32 16 -1
17 -3 5 -6 -18 -5 -31 -43 -43 -127 l-7 -48 54 7 c88 11 84 7 96 98 6 45 8 85
6 89 -3 5 10 7 28 7 23 -1 26 -3 11 -6 -16 -3 -23 -11 -23 -27 0 -13 -3 -51
-7 -86 l-6 -62 54 7 c93 11 89 7 89 96 l0 79 -42 1 c-47 1 262 47 325 48 22 1
36 -3 32 -9 -3 -5 6 -43 20 -83 l26 -74 52 5 c29 2 56 8 61 13 12 11 -42 147
-63 159 -13 8 -12 9 7 10 25 0 26 24 1 26 -8 1 -165 -18 -349 -41z m308 -2
c-10 -2 -26 -2 -35 0 -10 3 -2 5 17 5 19 0 27 -2 18 -5z m-550 -70 c-10 -2
-28 -2 -40 0 -13 2 -5 4 17 4 22 1 32 -1 23 -4z"/>
<path d="M9843 10373 c-49 -5 -49 -4 -27 -103 l17 -72 51 7 c81 10 106 16 106
26 0 5 -12 41 -27 79 -30 77 -20 72 -120 63z"/>
<path d="M9695 10351 l-30 -6 4 -80 c1 -44 4 -81 6 -83 1 -1 31 1 66 5 l64 9
-2 34 c-2 19 -8 56 -14 83 -12 51 -20 54 -94 38z"/>
<path d="M3636 10259 c-358 -40 -546 -529 -306 -801 45 -52 153 -112 220 -123
105 -17 230 0 230 33 0 14 -9 17 -59 14 -47 -3 -80 4 -167 33 -128 42 -167 65
-199 114 -49 74 -74 234 -55 342 31 172 180 315 341 327 71 5 189 -13 249 -39
49 -21 111 -78 153 -141 l25 -38 16 25 c9 13 16 31 16 40 0 27 -103 121 -166
153 -108 54 -195 72 -298 61z"/>
<path d="M6827 10199 c-108 -37 -183 -96 -245 -192 -103 -158 -119 -356 -41
-508 77 -151 269 -241 439 -207 47 9 66 18 68 31 3 15 -5 17 -62 17 -105 0
-291 66 -343 122 -58 62 -95 241 -74 359 23 132 109 247 226 305 54 26 70 29
150 28 108 -1 205 -24 260 -62 22 -15 61 -55 87 -89 l46 -62 16 24 c25 38 20
53 -35 106 -134 130 -335 183 -492 128z"/>
<path d="M9990 10185 c0 -8 9 -15 20 -15 11 0 20 7 20 15 0 8 -9 15 -20 15
-11 0 -20 -7 -20 -15z"/>
<path d="M9814 10169 c-10 -17 13 -36 27 -22 12 12 4 33 -11 33 -5 0 -12 -5
-16 -11z"/>
<path d="M10096 10158 c-32 -4 -60 -9 -61 -10 -2 -2 3 -32 11 -68 7 -36 16
-91 20 -123 l7 -58 36 5 c20 3 47 5 61 6 50 1 51 8 25 123 -13 59 -28 113 -32
120 -6 10 -23 11 -67 5z"/>
<path d="M3600 10151 c-184 -57 -285 -224 -259 -431 19 -158 59 -210 202 -259
150 -51 250 -51 278 1 14 27 8 30 -30 17 -36 -13 -188 -6 -253 12 -76 20 -118
74 -158 208 -40 129 -16 242 71 336 53 58 97 81 183 96 130 22 215 -3 304 -90
27 -27 58 -69 70 -92 16 -35 22 -40 27 -27 9 23 -42 104 -95 152 -51 46 -92
62 -186 75 -85 12 -118 13 -154 2z"/>
<path d="M9634 10149 c-10 -17 13 -36 27 -22 12 12 4 33 -11 33 -5 0 -12 -5
-16 -11z"/>
<path d="M9913 10137 c-67 -9 -72 -11 -68 -31 3 -11 11 -66 18 -121 l13 -100
64 2 c113 3 115 4 112 49 -7 86 -37 209 -52 210 -8 1 -48 -3 -87 -9z"/>
<path d="M9461 10130 c-16 -9 -6 -30 15 -30 15 0 20 25 6 34 -4 2 -14 1 -21
-4z"/>
<path d="M4168 10110 l-23 -19 27 -1 c54 0 166 -161 213 -304 24 -74 27 -96
23 -173 -11 -197 -100 -315 -301 -394 -98 -38 -182 -40 -255 -3 -52 26 -67 43
-83 93 l-7 26 -1 -28 c-3 -86 91 -157 207 -157 82 0 241 68 323 138 122 105
178 305 134 477 -33 125 -149 320 -210 352 -20 11 -27 10 -47 -7z"/>
<path d="M6872 10108 c-62 -14 -158 -84 -203 -148 -74 -105 -85 -284 -25 -416
29 -62 63 -88 169 -126 132 -47 225 -50 267 -8 29 29 25 41 -11 28 -36 -12
-204 -5 -261 12 -78 23 -128 91 -163 222 -41 153 19 307 149 383 77 45 229 55
313 20 46 -20 131 -102 164 -160 22 -38 30 -45 35 -32 7 20 -39 97 -88 144
-43 41 -109 70 -178 78 -113 12 -126 12 -168 3z"/>
<path d="M9720 10113 c-19 -3 -38 -7 -42 -11 -6 -7 15 -239 23 -247 3 -2 39 1
82 7 l79 11 -6 31 c-2 17 -10 73 -17 124 l-12 92 -36 -2 c-20 0 -52 -3 -71 -5z"/>
<path d="M9551 10093 l-44 -4 7 -114 c8 -146 8 -146 60 -139 116 15 109 11
102 52 -3 20 -9 76 -13 125 l-6 87 -31 -2 c-17 -1 -51 -3 -75 -5z"/>
<path d="M3721 10080 c-19 -11 -9 -45 14 -45 13 0 21 8 23 21 3 23 -17 37 -37
24z"/>
<path d="M7426 10061 c-16 -18 -16 -18 9 -13 22 4 35 -4 74 -47 54 -58 131
-198 155 -280 45 -153 -4 -346 -113 -444 -41 -37 -133 -88 -205 -114 -63 -22
-165 -18 -219 7 -54 25 -65 37 -83 87 l-13 38 -1 -36 c0 -44 33 -96 78 -122
48 -28 145 -33 218 -12 256 74 397 259 382 501 -8 133 -78 294 -178 407 -45
51 -76 60 -104 28z"/>
<path d="M9390 10071 l-45 -6 -3 -128 -3 -129 68 7 c102 10 106 12 99 48 -3
18 -8 74 -12 125 -8 104 1 97 -104 83z"/>
<path d="M1205 10049 c-176 -9 -343 -18 -371 -18 -51 -1 -52 -2 -58 -36 l-7
-35 -60 0 -61 0 7 -472 c5 -260 8 -484 9 -498 1 -17 -5 -26 -19 -28 -11 -3
-23 -9 -27 -16 -4 -6 -8 -105 -8 -221 -1 -115 -6 -256 -13 -312 -14 -108 -14
-108 39 -400 l16 -93 197 0 196 1 -52 18 c-227 82 -373 366 -319 621 21 101
75 206 140 275 29 31 50 57 47 58 -3 1 -34 2 -68 2 l-63 0 0 521 c0 409 3 523
13 526 6 2 63 5 125 7 l112 3 0 -208 0 -209 106 105 c58 58 138 150 176 205
39 55 73 102 74 104 2 2 46 3 99 2 l95 -2 0 61 c0 33 -1 59 -2 59 -2 -1 -147
-10 -323 -20z"/>
<path d="M3612 10048 c2 -15 10 -23 23 -23 30 0 27 39 -3 43 -20 3 -23 0 -20
-20z"/>
<path d="M4142 10024 c-30 -36 -147 -252 -140 -259 1 -2 58 44 126 101 134
115 132 112 74 167 l-29 28 -31 -37z"/>
<path d="M3802 10028 c2 -15 10 -23 23 -23 30 0 27 39 -3 43 -20 3 -23 0 -20
-20z"/>
<path d="M6982 10018 c2 -15 10 -23 23 -23 30 0 27 39 -3 43 -20 3 -23 0 -20
-20z"/>
<path d="M6884 10015 c-4 -9 -2 -21 4 -27 15 -15 44 -1 40 19 -4 23 -36 29
-44 8z"/>
<path d="M7074 9995 c-4 -9 -2 -21 4 -27 15 -15 44 -1 40 19 -4 23 -36 29 -44
8z"/>
<path d="M7392 9953 c-22 -32 -61 -101 -87 -153 -38 -77 -43 -91 -24 -74 13
12 71 61 129 109 58 48 106 91 108 94 4 11 -59 81 -73 81 -8 0 -32 -26 -53
-57z"/>
<path d="M3554 9985 c-9 -22 4 -32 49 -40 33 -6 37 -5 37 13 0 24 -4 27 -48
37 -25 5 -33 3 -38 -10z"/>
<path d="M3693 9989 c-16 -16 -5 -39 17 -39 23 0 32 13 24 34 -7 19 -25 21
-41 5z"/>
<path d="M3472 9968 c2 -15 10 -23 23 -23 30 0 27 39 -3 43 -20 3 -23 0 -20
-20z"/>
<path d="M3792 9938 c2 -15 10 -23 23 -23 30 0 27 39 -3 43 -20 3 -23 0 -20
-20z"/>
<path d="M3882 9951 c-19 -11 -11 -45 11 -49 9 -2 20 4 23 13 9 21 -16 47 -34
36z"/>
<path d="M6827 9953 c-4 -3 -7 -15 -7 -25 0 -12 7 -18 24 -18 14 0 27 -4 31
-10 3 -5 12 -7 21 -3 20 8 14 48 -8 48 -9 0 -20 4 -24 8 -9 9 -28 9 -37 0z"/>
<path d="M6961 9941 c-16 -28 14 -51 36 -28 13 13 14 19 3 31 -17 21 -27 20
-39 -3z"/>
<path d="M4165 9873 c-49 -42 -107 -90 -128 -108 l-38 -33 83 19 c46 10 119
26 163 35 44 9 84 20 89 25 9 8 -53 131 -69 135 -5 2 -50 -31 -100 -73z"/>
<path d="M6744 9935 c-4 -9 -2 -21 4 -27 15 -15 44 -1 40 19 -4 23 -36 29 -44
8z"/>
<path d="M1526 9918 c-3 -13 -6 -35 -6 -49 0 -15 -17 -45 -42 -75 -24 -28 -87
-103 -141 -167 l-99 -116 52 -91 c43 -73 55 -88 67 -79 19 17 30 2 15 -22 -18
-28 -5 -44 19 -23 17 15 19 15 25 0 3 -9 1 -23 -6 -31 -17 -21 -4 -32 20 -17
26 16 37 -4 15 -28 -17 -18 -15 -23 29 -98 43 -74 46 -83 46 -150 l0 -72 -55
0 -55 0 45 -42 c25 -22 60 -63 77 -90 17 -26 34 -48 38 -48 3 0 6 46 5 103 -1
56 -2 330 -3 610 -2 489 -3 507 -21 507 -11 0 -21 -9 -25 -22z"/>
<path d="M7067 9914 c-4 -4 -7 -16 -7 -26 0 -14 6 -19 23 -16 14 2 22 10 22
23 0 20 -25 32 -38 19z"/>
<path d="M750 9420 c0 -483 0 -490 20 -490 20 0 20 7 20 490 0 483 0 490 -20
490 -20 0 -20 -7 -20 -490z"/>
<path d="M7142 9888 c2 -15 10 -23 23 -23 30 0 27 39 -3 43 -20 3 -23 0 -20
-20z"/>
<path d="M7398 9802 c-69 -59 -125 -108 -125 -109 7 -6 337 74 337 82 0 16
-65 128 -76 131 -5 2 -66 -45 -136 -104z"/>
<path d="M3507 9894 c-4 -4 -7 -16 -7 -26 0 -14 6 -19 23 -16 14 2 22 10 22
23 0 20 -25 32 -38 19z"/>
<path d="M3640 9884 c-11 -12 -10 -18 4 -32 16 -16 18 -16 31 2 11 14 12 23 4
33 -15 17 -24 16 -39 -3z"/>
<path d="M3717 9873 c-12 -12 -7 -41 7 -46 19 -7 40 18 32 38 -6 15 -28 20
-39 8z"/>
<path d="M10034 9869 c-10 -17 13 -36 27 -22 12 12 4 33 -11 33 -5 0 -12 -5
-16 -11z"/>
<path d="M3578 9858 c-8 -21 2 -38 22 -38 19 0 34 25 24 41 -8 13 -41 11 -46
-3z"/>
<path d="M6777 9853 c-12 -11 -8 -41 7 -46 15 -6 36 11 36 29 0 6 -7 15 -16
18 -19 7 -19 7 -27 -1z"/>
<path d="M6910 9845 c-16 -19 -5 -47 17 -43 22 4 29 43 9 51 -8 3 -20 -1 -26
-8z"/>
<path d="M9861 9850 c-16 -9 -6 -30 15 -30 15 0 20 25 6 34 -4 2 -14 1 -21 -4z"/>
<path d="M3797 9833 c-22 -21 2 -56 31 -46 17 7 15 40 -4 47 -19 7 -19 7 -27
-1z"/>
<path d="M6993 9833 c-15 -5 -17 -39 -4 -47 16 -10 41 5 41 24 0 19 -17 30
-37 23z"/>
<path d="M10118 9833 l-38 -4 0 -130 0 -129 58 6 c31 4 61 10 65 14 5 4 11 62
14 129 l6 121 -34 -2 c-19 -1 -51 -3 -71 -5z"/>
<path d="M6848 9818 c-8 -21 2 -38 22 -38 19 0 30 17 23 38 -3 6 -13 12 -23
12 -10 0 -20 -6 -22 -12z"/>
<path d="M9677 9824 c-9 -10 2 -24 19 -24 8 0 14 7 14 15 0 15 -21 21 -33 9z"/>
<path d="M3442 9798 c2 -15 10 -23 23 -23 30 0 27 39 -3 43 -20 3 -23 0 -20
-20z"/>
<path d="M3517 9814 c-4 -4 -7 -16 -7 -26 0 -13 7 -18 26 -18 21 0 25 4 22 22
-3 23 -27 35 -41 22z"/>
<path d="M3894 9805 c-8 -19 3 -35 26 -35 22 0 33 23 17 39 -15 15 -37 14 -43
-4z"/>
<path d="M9965 9813 c-83 -10 -78 -3 -71 -106 4 -51 10 -107 13 -125 l5 -33
57 6 c108 12 101 5 101 94 0 43 -3 99 -6 125 -7 50 -8 51 -99 39z"/>
<path d="M3734 9796 c-3 -9 -3 -23 0 -31 8 -22 48 0 44 23 -4 22 -36 28 -44 8z"/>
<path d="M9494 9799 c-3 -6 -2 -15 4 -21 13 -13 32 -2 32 18 0 16 -26 19 -36
3z"/>
<path d="M3660 9785 c-15 -17 -5 -35 20 -35 22 0 33 23 17 39 -15 15 -22 14
-37 -4z"/>
<path d="M7071 9790 c-19 -11 -9 -45 14 -45 13 0 21 8 23 21 3 23 -17 37 -37
24z"/>
<path d="M9775 9788 c-33 -5 -61 -11 -63 -13 -3 -3 37 -238 42 -242 1 -1 33 0
70 4 l68 6 -6 71 c-16 177 -18 186 -35 185 -9 -1 -43 -6 -76 -11z"/>
<path d="M4182 9755 c-127 -29 -177 -45 -145 -45 6 0 82 -13 169 -30 88 -16
163 -30 168 -30 9 0 1 55 -15 108 -6 17 -16 32 -22 31 -7 0 -76 -16 -155 -34z"/>
<path d="M3584 9765 c-8 -19 3 -35 26 -35 22 0 33 23 17 39 -15 15 -37 14 -43
-4z"/>
<path d="M6712 9768 c-15 -18 1 -41 24 -36 23 4 26 41 3 46 -9 1 -21 -3 -27
-10z"/>
<path d="M6791 9770 c-19 -11 -9 -45 14 -45 13 0 21 8 23 21 3 23 -17 37 -37
24z"/>
<path d="M7173 9773 c-17 -6 -17 -28 0 -41 17 -14 40 1 35 23 -3 20 -16 26
-35 18z"/>
<path d="M9616 9768 c-38 -5 -71 -10 -72 -11 -2 -2 9 -57 24 -122 l28 -120 64
3 c36 2 67 6 69 8 5 5 -30 226 -38 239 -4 7 -30 8 -75 3z"/>
<path d="M7007 9763 c-11 -10 -8 -41 4 -49 6 -3 18 1 27 9 13 13 13 19 2 31
-14 17 -23 20 -33 9z"/>
<path d="M6930 9744 c-11 -12 -10 -18 3 -31 22 -23 52 0 36 28 -12 23 -22 24
-39 3z"/>
<path d="M9437 9746 l-79 -9 7 -36 c4 -20 21 -74 39 -121 l31 -85 50 2 c71 4
98 12 92 27 -3 7 -15 60 -28 117 -12 57 -25 106 -28 109 -3 3 -41 1 -84 -4z"/>
<path d="M7465 9716 c-77 -18 -147 -35 -155 -38 -13 -4 296 -68 330 -68 9 0
10 10 6 38 -10 52 -26 102 -34 101 -4 0 -70 -15 -147 -33z"/>
<path d="M3824 9725 c-8 -21 3 -31 44 -40 25 -5 33 -3 38 10 8 21 -3 31 -44
40 -25 5 -33 3 -38 -10z"/>
<path d="M6859 9724 c-11 -14 -10 -18 6 -30 17 -13 21 -13 32 2 9 13 10 21 2
31 -15 17 -24 16 -40 -3z"/>
<path d="M3530 9710 c-12 -7 -12 -13 -4 -27 16 -26 39 -22 39 6 0 27 -13 35
-35 21z"/>
<path d="M3634 9695 c-4 -9 -2 -21 4 -27 15 -15 44 -1 40 19 -4 23 -36 29 -44
8z"/>
<path d="M4000 9688 c0 -16 342 -199 352 -189 10 9 32 120 26 126 -4 4 -358
75 -374 75 -2 0 -4 -6 -4 -12z"/>
<path d="M7097 9694 c-4 -4 -7 -15 -7 -24 0 -16 36 -30 76 -30 15 0 20 35 7
43 -17 10 -69 17 -76 11z"/>
<path d="M3454 9655 c-4 -9 -2 -21 4 -27 15 -15 44 -1 40 19 -4 23 -36 29 -44
8z"/>
<path d="M3577 9664 c-4 -4 -7 -16 -7 -26 0 -13 7 -18 26 -18 21 0 25 4 22 22
-3 23 -27 35 -41 22z"/>
<path d="M6793 9654 c-3 -8 -1 -20 5 -26 16 -16 42 -2 42 22 0 24 -38 28 -47
4z"/>
<path d="M6904 9655 c-4 -9 -2 -21 4 -27 15 -15 44 -1 40 19 -4 23 -36 29 -44
8z"/>
<path d="M3990 9655 c0 -3 41 -86 90 -185 103 -206 90 -199 186 -108 45 43 84
103 73 112 -4 3 -276 149 -326 175 -13 6 -23 9 -23 6z"/>
<path d="M7270 9647 c0 -16 341 -200 352 -189 9 9 33 121 27 126 -2 3 -81 19
-174 36 -94 17 -178 34 -187 36 -11 3 -18 0 -18 -9z"/>
<path d="M3744 9635 c-4 -9 -2 -21 4 -27 15 -15 44 -1 40 19 -4 23 -36 29 -44
8z"/>
<path d="M3816 9641 c-9 -13 4 -41 18 -41 18 0 35 21 29 36 -6 16 -39 19 -47
5z"/>
<path d="M3660 9621 c0 -24 13 -33 35 -25 23 9 14 38 -13 42 -16 3 -22 -2 -22
-17z"/>
<path d="M3960 9633 c0 -20 52 -398 55 -401 8 -8 135 40 135 51 0 16 -174 357
-182 357 -5 0 -8 -3 -8 -7z"/>
<path d="M3872 9491 c-34 -78 -62 -154 -62 -169 0 -43 47 -78 130 -96 54 -11
55 -4 30 191 -13 98 -26 186 -29 196 -5 13 -25 -23 -69 -122z"/>
<path d="M6727 9624 c-4 -4 -7 -16 -7 -26 0 -14 6 -19 23 -16 14 2 22 10 22
23 0 20 -25 32 -38 19z"/>
<path d="M6842 9598 c2 -15 10 -23 23 -23 13 0 21 8 23 23 3 18 -1 22 -23 22
-22 0 -26 -4 -23 -22z"/>
<path d="M7260 9615 c0 -13 181 -365 188 -365 35 1 162 138 162 175 0 6 -33
27 -72 47 -40 20 -119 62 -175 92 -57 31 -103 53 -103 51z"/>
<path d="M7017 9604 c-4 -4 -7 -16 -7 -26 0 -14 6 -19 23 -16 14 2 22 10 22
23 0 20 -25 32 -38 19z"/>
<path d="M7084 9595 c-8 -19 3 -35 26 -35 19 0 30 17 23 38 -6 17 -42 15 -49
-3z"/>
<path d="M3577 9594 c-4 -4 -7 -16 -7 -26 0 -14 6 -19 23 -16 14 2 22 10 22
23 0 20 -25 32 -38 19z"/>
<path d="M6932 9578 c2 -15 10 -23 23 -23 30 0 27 39 -3 43 -20 3 -23 0 -20
-20z"/>
<path d="M7230 9592 c0 -24 52 -397 56 -401 5 -5 103 25 124 39 13 8 0 38 -75
190 -79 159 -105 201 -105 172z"/>
<path d="M3737 9583 c-12 -11 -7 -33 8 -39 20 -8 45 13 38 32 -5 14 -34 19
-46 7z"/>
<path d="M7141 9450 c-82 -189 -81 -214 14 -249 75 -28 105 -28 105 2 0 32
-48 378 -53 383 -2 3 -32 -59 -66 -136z"/>
<path d="M6847 9553 c-12 -12 -7 -41 7 -46 19 -7 40 18 32 38 -6 15 -28 20
-39 8z"/>
<path d="M15330 9475 l-365 -82 0 -34 c0 -34 0 -34 -59 -41 -32 -4 -60 -9 -61
-10 -2 -2 8 -57 20 -123 13 -66 54 -277 90 -469 36 -193 68 -360 71 -373 4
-16 2 -23 -7 -23 -39 -1 -39 -11 -5 -235 19 -121 37 -267 40 -325 6 -96 12
-121 70 -283 35 -98 66 -180 68 -182 4 -4 315 50 353 62 15 5 5 10 -35 19 -78
18 -117 36 -187 87 -180 133 -265 408 -194 627 14 41 45 103 69 139 40 58 42
63 20 58 -54 -13 -118 -19 -118 -10 0 5 -11 71 -24 148 -50 286 -146 857 -146
869 0 17 240 58 245 42 2 -6 17 -94 34 -195 17 -101 33 -186 35 -188 11 -11
173 235 225 343 l60 121 90 15 c88 14 90 14 95 -6 17 -64 7 -92 -100 -272 -58
-98 -106 -181 -107 -186 -1 -4 27 -43 63 -87 48 -59 68 -77 77 -70 18 15 37 1
23 -16 -19 -22 -1 -39 20 -20 22 20 36 4 20 -24 -12 -24 4 -38 25 -21 23 19
39 1 19 -21 -19 -21 -24 -13 57 -106 39 -44 47 -61 57 -119 6 -37 9 -71 6 -76
-3 -4 -17 -8 -32 -9 -15 0 -36 -4 -46 -8 -16 -6 -13 -11 26 -34 25 -14 69 -52
97 -83 40 -43 51 -51 47 -33 -4 13 -12 62 -20 109 -32 192 -168 989 -177 1038
-9 44 -14 52 -28 47 -15 -4 -20 5 -32 58 l-14 64 -365 -82z"/>
<path d="M7004 9536 c-8 -21 3 -36 27 -36 15 0 20 6 17 22 -4 27 -35 37 -44
14z"/>
<path d="M10077 9544 c-9 -10 2 -24 19 -24 8 0 14 7 14 15 0 15 -21 21 -33 9z"/>
<path d="M9894 9519 c-3 -6 -2 -15 4 -21 13 -13 32 -2 32 18 0 16 -26 19 -36
3z"/>
<path d="M9716 9495 c-3 -9 1 -18 10 -22 19 -7 28 2 21 22 -8 19 -23 19 -31 0z"/>
<path d="M10125 9501 c-38 -6 -40 -8 -43 -43 -3 -41 0 -43 56 -32 17 4 33 14
36 23 2 9 7 26 11 39 7 24 8 23 -60 13z"/>
<path d="M9955 9481 c-23 -3 -40 -11 -39 -18 1 -7 2 -25 3 -39 1 -24 3 -25 49
-19 91 12 92 12 92 50 0 33 -2 35 -32 34 -18 -1 -51 -5 -73 -8z"/>
<path d="M9537 9474 c-9 -10 2 -24 19 -24 8 0 14 7 14 15 0 15 -21 21 -33 9z"/>
<path d="M9801 9463 c-31 -4 -33 -6 -27 -35 3 -17 6 -35 6 -40 0 -5 17 -6 38
-3 83 14 82 13 82 50 0 38 -4 39 -99 28z"/>
<path d="M9653 9443 c-18 -2 -33 -6 -33 -7 0 -2 5 -17 11 -35 9 -25 17 -31 39
-31 55 0 90 12 90 30 0 49 -13 55 -107 43z"/>
<path d="M9498 9423 c-16 -4 -16 -6 0 -39 16 -35 17 -35 67 -29 27 4 52 9 54
11 1 1 -1 15 -6 31 -8 25 -15 28 -54 30 -24 0 -52 -1 -61 -4z"/>
<path d="M9840 9374 c-184 -24 -336 -43 -337 -44 -2 0 -3 -7 -3 -15 0 -12 7
-15 33 -10 17 3 175 23 349 44 175 22 322 42 328 46 14 9 2 25 -18 24 -9 0
-168 -21 -352 -45z"/>
<path d="M1052 9277 l-62 -63 0 -128 0 -128 23 7 c12 4 62 10 110 12 89 5 152
-5 210 -34 l28 -14 -15 28 c-8 15 -28 47 -43 70 -26 37 -30 40 -47 27 -29 -21
-40 -5 -16 21 27 29 17 55 -10 30 -29 -27 -46 -7 -19 21 17 18 20 27 11 36 -9
9 -16 7 -32 -7 -14 -12 -24 -15 -30 -9 -7 7 -4 17 10 29 11 10 20 21 20 25 0
4 -17 37 -38 73 l-39 66 -61 -62z"/>
<path d="M14961 9253 c0 -16 35 -233 78 -483 65 -382 80 -455 94 -458 11 -2
17 3 17 13 0 18 -132 809 -151 903 -11 57 -39 75 -38 25z"/>
<path d="M12145 9180 c-3 -6 0 -12 7 -15 26 -10 708 0 711 10 3 14 -709 19
-718 5z"/>
<path d="M12144 9137 c-16 -42 -43 -141 -39 -147 2 -3 34 -6 71 -6 l67 1 13
63 c7 35 16 72 19 82 6 19 1 20 -60 20 -45 0 -67 -4 -71 -13z"/>
<path d="M12295 9138 c-9 -25 -34 -142 -31 -145 7 -7 122 -12 132 -5 6 4 14
42 18 85 l7 77 -61 0 c-39 0 -62 -4 -65 -12z"/>
<path d="M12436 9118 c-14 -91 -16 -127 -8 -132 5 -3 38 -3 73 0 l64 6 -3 57
c-5 101 -5 101 -67 101 -53 0 -54 0 -59 -32z"/>
<path d="M12576 9078 c8 -96 8 -97 41 -94 15 2 52 4 81 5 59 1 57 -7 26 109
l-15 52 -69 0 -70 0 6 -72z"/>
<path d="M12737 9123 c3 -16 12 -53 18 -83 8 -42 15 -55 28 -54 9 1 38 2 63 3
52 1 51 -6 18 109 l-15 52 -59 0 -60 0 7 -27z"/>
<path d="M12203 8954 c-7 -19 2 -28 22 -21 19 8 19 23 0 31 -9 3 -18 -1 -22
-10z"/>
<path d="M12384 8959 c-10 -17 13 -36 27 -22 12 12 4 33 -11 33 -5 0 -12 -5
-16 -11z"/>
<path d="M12565 8961 c-8 -15 3 -31 21 -31 9 0 14 7 12 17 -4 20 -24 28 -33
14z"/>
<path d="M12751 8960 c-16 -9 -6 -30 15 -30 15 0 20 25 6 34 -4 2 -14 1 -21
-4z"/>
<path d="M12071 8833 c-6 -43 -12 -100 -14 -128 l-2 -50 78 -2 c52 -1 79 3 82
10 2 7 6 65 9 130 l6 117 -74 0 -74 0 -11 -77z"/>
<path d="M12246 8879 c-3 -17 -6 -76 -6 -130 l0 -99 75 1 75 1 0 67 c0 38 3
96 6 130 l7 61 -75 0 -75 0 -7 -31z"/>
<path d="M12415 8888 c-3 -13 -5 -70 -3 -128 l3 -105 78 -3 77 -4 0 131 0 131
-75 0 c-69 0 -75 -2 -80 -22z"/>
<path d="M12592 8783 l3 -128 88 -2 87 -2 0 98 c0 54 -3 113 -6 130 l-6 31
-85 0 -84 0 3 -127z"/>
<path d="M12785 8793 c4 -65 8 -124 10 -130 3 -9 27 -13 71 -13 l67 0 -6 108
c-10 157 -7 152 -84 152 l-64 0 6 -117z"/>
<path d="M1073 8759 c-41 -12 -103 -48 -103 -60 0 -14 359 -489 370 -489 25 0
12 25 -61 118 -74 94 -87 123 -56 122 7 -1 46 -44 87 -96 l74 -95 17 33 c9 18
22 60 29 94 44 224 -154 432 -357 373z"/>
<path d="M15355 8699 l-47 -72 18 -121 c9 -66 18 -122 19 -124 1 -1 38 9 81
24 67 22 90 25 168 22 50 -3 100 -8 111 -13 11 -5 -5 19 -35 53 -50 57 -55 60
-71 46 -25 -23 -45 -7 -23 17 13 15 15 22 6 31 -9 9 -15 8 -25 -7 -22 -29 -42
-9 -22 22 24 36 3 55 -24 22 -18 -22 -20 -22 -26 -6 -5 11 -1 25 9 36 16 17
14 22 -35 80 -28 33 -52 61 -53 61 -2 0 -24 -32 -51 -71z"/>
<path d="M901 8619 c-36 -63 -45 -115 -39 -207 9 -112 72 -212 163 -257 55
-27 184 -28 238 -1 20 10 37 22 37 26 0 6 -336 458 -360 484 -5 4 -22 -16 -39
-45z"/>
<path d="M12204 8629 c-10 -17 13 -36 27 -22 12 12 4 33 -11 33 -5 0 -12 -5
-16 -11z"/>
<path d="M12384 8629 c-10 -17 13 -36 27 -22 12 12 4 33 -11 33 -5 0 -12 -5
-16 -11z"/>
<path d="M12564 8629 c-10 -17 13 -36 27 -22 12 12 4 33 -11 33 -5 0 -12 -5
-16 -11z"/>
<path d="M12744 8629 c-10 -17 13 -36 27 -22 12 12 4 33 -11 33 -5 0 -12 -5
-16 -11z"/>
<path d="M12064 8522 c4 -32 15 -87 25 -123 l18 -64 73 -3 73 -3 -6 31 c-4 17
-10 73 -13 125 l-7 95 -85 0 -85 0 7 -58z"/>
<path d="M12244 8543 c3 -21 8 -69 11 -108 10 -110 6 -105 87 -105 60 0 69 2
64 16 -3 9 -6 65 -6 125 l0 109 -81 0 -81 0 6 -37z"/>
<path d="M12414 8528 c3 -29 6 -86 6 -125 l0 -73 69 0 69 0 6 31 c3 17 6 74 6
125 l0 94 -81 0 -82 0 7 -52z"/>
<path d="M12590 8532 c0 -27 -3 -83 -6 -125 l-7 -77 80 0 c93 0 87 -7 98 115
3 39 8 85 11 103 l5 32 -91 0 -90 0 0 -48z"/>
<path d="M12776 8493 c-3 -48 -9 -104 -12 -125 l-7 -38 61 0 c59 0 61 1 71 33
12 39 41 180 41 202 0 12 -14 15 -74 15 l-73 0 -7 -87z"/>
<path d="M12204 8299 c-10 -17 13 -36 27 -22 12 12 4 33 -11 33 -5 0 -12 -5
-16 -11z"/>
<path d="M12384 8299 c-10 -17 13 -36 27 -22 12 12 4 33 -11 33 -5 0 -12 -5
-16 -11z"/>
<path d="M12564 8299 c-10 -17 13 -36 27 -22 12 12 4 33 -11 33 -5 0 -12 -5
-16 -11z"/>
<path d="M12744 8299 c-10 -17 13 -36 27 -22 12 12 4 33 -11 33 -5 0 -12 -5
-16 -11z"/>
<path d="M12144 8248 c-3 -4 2 -21 11 -38 14 -27 20 -30 65 -30 48 0 50 1 50
28 0 15 -4 32 -8 37 -8 12 -111 15 -118 3z"/>
<path d="M12284 8227 c3 -16 6 -33 6 -38 0 -5 30 -9 66 -9 64 0 66 1 60 23 -3
12 -6 29 -6 38 0 13 -12 16 -66 16 l-66 0 6 -30z"/>
<path d="M12432 8220 c3 -35 3 -35 57 -38 37 -2 57 1 62 10 11 16 12 58 2 59
-5 0 -34 1 -66 3 l-58 2 3 -36z"/>
<path d="M12576 8227 c-3 -16 -6 -34 -6 -39 0 -5 32 -8 72 -6 70 3 72 4 79 32
5 17 7 31 6 32 -1 1 -34 4 -74 6 l-71 4 -6 -29z"/>
<path d="M12751 8250 c-4 -3 -11 -20 -14 -37 l-6 -33 48 0 c46 0 50 2 60 31 6
18 11 35 11 38 0 7 -89 8 -99 1z"/>
<path d="M15495 8202 c-49 -17 -125 -67 -125 -82 0 -6 126 -128 407 -394 34
-31 44 -36 48 -24 6 15 -9 32 -144 154 -36 33 -41 42 -29 52 12 9 31 -4 104
-68 49 -44 92 -80 96 -80 14 0 30 105 25 162 -11 125 -93 236 -204 278 -65 24
-112 25 -178 2z"/>
<path d="M1538 8138 c-54 -80 -114 -135 -191 -173 l-70 -35 147 0 c80 0 147 3
147 8 3 15 7 252 4 252 -1 0 -18 -24 -37 -52z"/>
<path d="M12163 8162 c-30 -4 -29 -20 1 -28 34 -8 693 -1 702 9 4 4 4 10 0 14
-7 7 -657 11 -703 5z"/>
<path d="M4425 8059 c-192 -43 -352 -78 -354 -79 -2 0 -1 -16 1 -35 4 -34 4
-34 -42 -40 -25 -4 -52 -7 -60 -9 -20 -3 -23 20 75 -498 47 -246 85 -456 85
-467 0 -11 -9 -22 -20 -26 -11 -3 -20 -9 -20 -13 0 -4 14 -92 31 -197 16 -104
34 -248 38 -320 8 -125 11 -137 71 -305 34 -96 66 -179 70 -183 4 -5 92 6 194
24 l186 34 -63 15 c-93 23 -153 56 -229 128 -140 133 -204 341 -164 533 16 73
60 169 100 216 14 17 26 33 26 35 0 3 -31 0 -69 -7 l-69 -12 -16 86 c-60 337
-158 942 -153 947 11 12 230 45 237 37 4 -4 20 -87 35 -183 16 -96 31 -183 34
-193 10 -26 171 211 234 343 28 58 54 108 59 111 13 9 169 31 175 25 3 -3 8
-28 11 -55 4 -47 1 -54 -107 -236 -96 -162 -110 -190 -98 -204 102 -123 120
-141 133 -130 21 17 38 0 19 -21 -13 -15 -14 -19 -1 -29 11 -10 16 -8 25 6 8
14 12 15 22 6 10 -10 9 -15 -1 -28 -17 -21 -4 -32 21 -17 28 18 42 5 24 -22
-15 -22 -13 -26 43 -94 48 -57 61 -80 66 -119 4 -26 10 -58 13 -69 4 -20 -1
-23 -46 -29 -28 -4 -51 -10 -51 -13 1 -4 26 -23 56 -42 31 -19 74 -57 96 -85
31 -38 38 -44 34 -25 -9 41 -72 403 -136 785 -75 447 -68 415 -90 415 -13 0
-20 10 -24 30 -3 17 -9 44 -12 60 -4 20 -11 30 -22 29 -9 -1 -174 -37 -367
-80z"/>
<path d="M15322 8044 c-12 -28 -17 -65 -17 -134 0 -81 4 -103 26 -150 81 -172
271 -231 423 -131 l39 26 -139 133 c-76 73 -178 169 -227 214 l-87 80 -18 -38z"/>
<path d="M4077 7862 c-10 -2 -17 -9 -14 -15 2 -7 39 -221 82 -477 43 -256 81
-468 84 -472 3 -4 12 -3 20 1 11 7 -1 92 -63 462 -42 250 -79 465 -84 479 -5
18 -13 25 -25 22z"/>
<path d="M16027 7656 c-39 -85 -93 -153 -160 -202 -33 -24 -55 -44 -50 -44 10
0 277 51 279 53 1 1 -8 58 -20 127 l-22 125 -27 -59z"/>
<path d="M7631 7655 c-1 -55 21 -133 55 -196 47 -87 117 -146 255 -218 68 -35
139 -77 157 -95 39 -35 78 -108 116 -214 14 -40 35 -89 46 -110 l20 -37 -6 65
c-25 294 -73 375 -289 482 -186 92 -252 153 -322 297 l-32 66 0 -40z"/>
<path d="M7864 7570 c10 -52 66 -102 175 -155 142 -69 190 -121 236 -258 l24
-72 1 45 c8 192 -70 295 -266 353 -78 23 -133 55 -155 90 l-21 32 6 -35z"/>
<path d="M4464 7284 l-47 -65 19 -130 c15 -110 20 -129 33 -123 113 50 234 65
313 41 l48 -15 -19 26 c-11 15 -35 42 -55 61 -34 33 -36 34 -55 17 -25 -23
-39 -2 -16 24 23 26 9 47 -16 24 -13 -12 -23 -14 -30 -7 -7 7 -5 14 6 23 8 7
15 18 15 26 0 24 -20 26 -39 3 -26 -32 -44 -16 -23 20 16 29 16 29 -32 85 -26
31 -49 56 -51 56 -2 0 -25 -30 -51 -66z"/>
<path d="M7715 7240 c-12 -51 -6 -109 13 -136 22 -29 78 -58 167 -84 39 -11
82 -31 96 -44 47 -41 89 -108 105 -165 24 -87 25 -89 34 -66 14 33 11 118 -5
172 -18 59 -81 135 -135 163 -20 10 -68 24 -106 31 -116 20 -125 27 -149 119
l-12 45 -8 -35z"/>
<path d="M4640 6800 c-50 -9 -103 -36 -136 -71 l-28 -29 34 -34 c360 -345 430
-405 430 -367 0 4 -42 45 -94 91 -58 50 -92 88 -89 96 9 25 27 15 108 -61 44
-41 85 -74 92 -75 17 0 36 96 30 156 -19 183 -185 323 -347 294z"/>
<path d="M4433 6633 c-28 -62 -29 -196 -4 -264 59 -155 224 -242 361 -190 30
11 67 31 82 43 l27 23 -225 213 -224 214 -17 -39z"/>
<path d="M1066 6392 c-2 -4 -7 -28 -11 -52 -4 -25 -11 -49 -17 -55 -10 -10 -9
4 8 70 5 19 4 19 -7 1 -6 -10 -12 -36 -13 -57 0 -21 -4 -39 -8 -39 -3 0 -4 -9
-1 -20 4 -15 11 -19 24 -15 18 6 19 2 14 -37 -10 -72 -15 -91 -43 -158 -26
-63 -27 -72 -30 -306 -4 -271 -6 -264 70 -284 49 -14 110 -5 140 20 23 18 23
23 26 263 l3 245 -31 80 c-17 44 -33 103 -37 131 -5 45 -4 51 11 45 9 -3 16
-2 17 2 0 5 2 17 4 26 4 23 -14 101 -26 113 -7 6 -6 0 0 -18 6 -16 11 -38 10
-50 0 -21 -1 -21 -11 3 -12 31 -16 48 -17 78 -1 18 -7 22 -35 22 -19 0 -37 -3
-40 -8z m-11 -142 c3 -5 1 -10 -4 -10 -6 0 -11 5 -11 10 0 6 2 10 4 10 3 0 8
-4 11 -10z m115 6 c0 -3 -4 -8 -10 -11 -5 -3 -10 -1 -10 4 0 6 5 11 10 11 6 0
10 -2 10 -4z"/>
<path d="M5125 6223 c-33 -74 -102 -156 -173 -204 -31 -21 -39 -30 -23 -26 13
3 79 16 147 28 95 18 124 27 124 39 0 30 -34 230 -39 230 -3 0 -19 -30 -36
-67z"/>
<path d="M608 5937 c-15 -35 -18 -75 -18 -249 l0 -208 26 -6 c19 -5 22 -9 13
-15 -22 -13 17 -23 96 -23 79 -1 137 11 116 23 -9 6 -5 10 13 15 l26 6 0 208
c0 174 -3 214 -17 249 l-18 43 -110 0 -110 0 -17 -43z m75 -484 c-7 -2 -19 -2
-25 0 -7 3 -2 5 12 5 14 0 19 -2 13 -5z m124 1 c-3 -3 -12 -4 -19 -1 -8 3 -5
6 6 6 11 1 17 -2 13 -5z"/>
<path d="M6768 5494 c-28 -15 -34 -25 -21 -38 4 -3 8 -14 9 -24 0 -9 4 -30 8
-47 6 -30 6 -30 -10 4 -8 18 -13 40 -10 47 3 8 1 14 -4 14 -13 0 -13 -14 2
-61 6 -22 15 -39 20 -39 5 0 7 -4 4 -9 -3 -4 3 -16 14 -26 18 -16 20 -16 20
-2 0 10 -4 17 -10 17 -5 0 -10 5 -10 11 0 20 30 -12 52 -55 11 -22 27 -76 34
-120 21 -118 26 -130 147 -344 l110 -194 48 4 c51 5 106 39 135 83 15 23 14
28 -14 87 -30 62 -90 174 -157 294 -19 33 -58 82 -87 108 -112 102 -127 119
-140 147 -7 16 -16 29 -20 29 -5 0 -8 8 -8 18 0 14 4 12 20 -8 13 -17 20 -20
20 -10 0 18 -16 45 -27 45 -20 1 -54 28 -70 55 -20 34 -19 34 -55 14z"/>
<path d="M6854 5466 c17 -18 33 -32 35 -30 5 5 -50 64 -59 64 -4 0 7 -15 24
-34z"/>
<path d="M12092 5455 c-183 -24 -336 -46 -340 -50 -4 -4 1 -13 11 -20 12 -9
14 -14 6 -17 -11 -4 -44 -157 -36 -165 9 -9 130 16 138 28 5 8 9 30 9 49 0 19
3 52 6 72 l7 37 -54 -4 c-30 -3 -49 -3 -44 -1 18 9 597 77 608 72 7 -2 -2 -5
-20 -5 -17 -1 -34 -5 -37 -9 -3 -5 7 -43 22 -85 l27 -76 45 6 c85 11 83 9 47
93 -24 53 -38 75 -50 74 -9 -1 -17 2 -17 7 0 5 12 9 26 9 30 0 28 24 -2 26
-10 1 -169 -17 -352 -41z"/>
<path d="M12222 5433 l-44 -4 7 -37 c4 -20 11 -59 17 -85 l10 -48 46 6 c116
15 114 14 108 41 -4 14 -16 49 -27 79 -22 60 -14 57 -117 48z"/>
<path d="M12083 5413 l-33 -4 0 -85 0 -84 58 6 c86 9 85 8 78 57 -4 23 -11 59
-17 80 -10 39 -10 39 -86 30z"/>
<path d="M11928 5393 c-21 -5 -25 -18 -34 -106 l-6 -67 58 6 c88 9 84 4 84 94
l0 80 -42 -1 c-24 -1 -51 -3 -60 -6z"/>
<path d="M9240 5274 c-210 -69 -344 -239 -365 -463 -22 -226 126 -425 341
-461 84 -15 214 7 214 35 0 12 -14 15 -60 15 -67 0 -229 47 -297 86 -73 42
-105 107 -123 246 -25 204 58 371 225 449 82 39 124 44 225 30 151 -22 217
-59 279 -153 l39 -59 16 22 c24 35 20 52 -23 100 -83 94 -238 160 -374 158
-45 0 -89 -3 -97 -5z"/>
<path d="M12377 5254 c-9 -10 2 -24 19 -24 8 0 14 7 14 15 0 15 -21 21 -33 9z"/>
<path d="M12202 5224 c4 -21 22 -23 26 -1 2 10 -3 17 -13 17 -10 0 -15 -6 -13
-16z"/>
<path d="M12500 5223 c-14 -2 -39 -6 -56 -8 l-31 -5 14 -63 c7 -34 16 -90 19
-125 l7 -63 56 6 c92 11 92 11 84 58 -11 75 -48 200 -58 202 -5 1 -21 0 -35
-2z"/>
<path d="M12016 5212 c-8 -13 11 -35 23 -28 16 10 14 36 -3 36 -8 0 -17 -4
-20 -8z"/>
<path d="M12306 5199 c-38 -5 -72 -11 -74 -14 -5 -4 13 -158 25 -219 l5 -28
72 6 c106 10 108 11 101 54 -21 135 -39 212 -49 211 -6 -1 -42 -6 -80 -10z"/>
<path d="M11841 5186 c-12 -14 -5 -26 16 -26 15 0 18 26 4 34 -5 3 -14 0 -20
-8z"/>
<path d="M9256 5169 c-82 -19 -188 -107 -234 -194 -25 -46 -27 -59 -27 -170 1
-68 6 -139 14 -165 31 -106 186 -192 349 -194 76 -1 85 1 103 23 25 31 24 44
-3 30 -26 -14 -212 -6 -271 11 -60 18 -109 75 -143 166 -53 146 -34 274 56
377 51 58 106 86 198 98 84 11 161 2 210 -24 40 -23 130 -117 151 -159 15 -32
22 -38 27 -25 8 22 -33 91 -83 139 -49 47 -112 75 -199 88 -80 11 -95 11 -148
-1z"/>
<path d="M12093 5173 c-32 -4 -33 -6 -33 -53 0 -41 18 -203 23 -206 1 -1 37 3
80 9 89 11 83 -2 62 142 -8 55 -15 103 -15 108 0 7 -58 7 -117 0z"/>
<path d="M11928 5153 l-38 -4 0 -57 c1 -58 15 -191 22 -197 4 -5 140 14 145
19 3 2 -2 58 -9 125 l-12 121 -36 -2 c-19 -1 -52 -3 -72 -5z"/>
<path d="M9818 5130 l-23 -19 27 -1 c54 0 164 -155 215 -303 22 -62 25 -84 21
-172 -3 -94 -6 -108 -41 -178 -47 -94 -102 -146 -217 -201 -71 -34 -97 -41
-162 -44 -66 -4 -84 -1 -133 22 -46 21 -59 33 -75 68 -15 33 -20 37 -20 20 0
-51 48 -110 112 -137 137 -57 413 65 505 223 109 186 75 438 -90 658 -57 75
-86 91 -119 64z"/>
<path d="M11765 5131 l-40 -6 -3 -123 c-2 -94 0 -124 11 -127 13 -6 146 10
153 18 2 2 -1 59 -8 125 l-12 122 -31 -1 c-16 -1 -48 -5 -70 -8z"/>
<path d="M9363 5084 c-3 -8 -1 -20 5 -26 16 -16 42 -2 42 22 0 24 -38 28 -47
4z"/>
<path d="M9264 5075 c-4 -9 -2 -21 4 -27 15 -15 44 -1 40 19 -4 23 -36 29 -44
8z"/>
<path d="M9809 5063 c-41 -47 -165 -270 -156 -280 5 -4 241 196 245 207 2 5
-14 28 -35 50 -37 40 -39 41 -54 23z"/>
<path d="M9454 5055 c-4 -9 -2 -21 4 -27 15 -15 44 -1 40 19 -4 23 -36 29 -44
8z"/>
<path d="M9204 5005 c-9 -22 3 -32 47 -40 27 -5 38 -3 42 8 7 19 -9 33 -51 42
-25 5 -33 3 -38 -10z"/>
<path d="M9347 5013 c-12 -12 -7 -41 7 -46 19 -7 40 18 32 38 -6 15 -28 20
-39 8z"/>
<path d="M9124 4995 c-4 -9 -2 -21 4 -27 15 -15 44 -1 40 19 -4 23 -36 29 -44
8z"/>
<path d="M6695 4974 c-22 -13 -39 -29 -37 -35 1 -6 -2 -8 -7 -4 -14 8 -73 -24
-66 -35 3 -6 -1 -7 -10 -4 -13 5 -14 -1 -10 -39 8 -65 201 -406 231 -407 11 0
24 -4 30 -10 18 -18 184 74 184 103 0 5 -10 2 -22 -9 -15 -12 -14 -8 5 12 15
16 27 34 27 39 0 4 -46 90 -102 190 -75 133 -112 188 -135 204 -40 26 -39 26
-88 -5z m260 -464 c-3 -5 -16 -15 -28 -21 -19 -9 -19 -8 3 10 28 23 34 26 25
11z"/>
<path d="M9444 4965 c-4 -9 -2 -21 4 -27 15 -15 44 -1 40 19 -4 23 -36 29 -44
8z"/>
<path d="M9524 4955 c-4 -9 -2 -21 4 -27 15 -15 44 -1 40 19 -4 23 -36 29 -44
8z"/>
<path d="M9775 4858 c-71 -62 -123 -109 -115 -107 8 3 86 21 172 40 87 19 158
39 158 44 -1 17 -64 129 -75 132 -5 1 -68 -48 -140 -109z"/>
<path d="M12420 4920 c0 -11 7 -20 15 -20 8 0 15 9 15 20 0 11 -7 20 -15 20
-8 0 -15 -9 -15 -20z"/>
<path d="M9157 4914 c-4 -4 -7 -16 -7 -26 0 -14 6 -19 23 -16 14 2 22 10 22
23 0 20 -25 32 -38 19z"/>
<path d="M9289 4904 c-10 -12 -9 -18 4 -31 13 -13 19 -14 31 -3 21 17 20 27
-3 39 -14 8 -22 7 -32 -5z"/>
<path d="M12246 4913 c-12 -12 -6 -33 9 -33 8 0 15 6 15 14 0 17 -14 28 -24
19z"/>
<path d="M9373 4893 c-7 -3 -13 -13 -13 -23 0 -19 17 -30 38 -23 6 3 12 13 12
23 0 19 -17 30 -37 23z"/>
<path d="M12066 4893 c-12 -12 -6 -33 9 -33 8 0 15 6 15 14 0 17 -14 28 -24
19z"/>
<path d="M12497 4893 l-39 -4 7 -127 c4 -70 8 -128 10 -130 1 -1 26 1 56 5 53
8 54 9 60 48 4 22 10 79 14 128 l7 87 -38 -2 c-22 -1 -56 -3 -77 -5z"/>
<path d="M9230 4865 c0 -22 4 -26 23 -23 14 2 22 10 22 23 0 13 -8 21 -22 23
-19 3 -23 -1 -23 -23z"/>
<path d="M12345 4873 c-81 -10 -78 -6 -71 -86 4 -40 9 -96 12 -125 l6 -53 57
7 c31 4 63 8 71 10 8 1 18 3 23 3 8 1 10 212 1 235 -6 16 -29 18 -99 9z"/>
<path d="M11882 4854 c4 -21 22 -23 26 -1 2 10 -3 17 -13 17 -10 0 -15 -6 -13
-16z"/>
<path d="M9451 4850 c-19 -11 -9 -45 14 -45 13 0 21 8 23 21 3 23 -17 37 -37
24z"/>
<path d="M12153 4848 c-57 -9 -63 -12 -58 -31 2 -12 12 -67 21 -122 9 -55 17
-101 18 -102 1 -2 33 0 70 4 l69 6 -7 81 c-12 150 -17 176 -35 175 -9 -1 -44
-6 -78 -11z"/>
<path d="M9094 4825 c-4 -9 -2 -21 4 -27 15 -15 44 -1 40 19 -4 23 -36 29 -44
8z"/>
<path d="M9173 4833 c-19 -7 -16 -40 4 -47 21 -8 36 6 31 30 -3 19 -16 25 -35
17z"/>
<path d="M9550 4825 c-15 -18 -5 -35 20 -35 10 0 22 5 25 10 7 11 -12 40 -25
40 -4 0 -13 -7 -20 -15z"/>
<path d="M12045 4835 c-5 -2 -35 -6 -66 -10 l-57 -6 18 -84 c10 -45 24 -102
30 -125 l11 -41 47 6 c26 3 56 8 68 10 l21 5 -21 122 c-21 115 -27 131 -51
123z"/>
<path d="M9393 4823 c-7 -3 -13 -13 -13 -23 0 -19 17 -30 38 -23 6 3 12 13 12
23 0 19 -17 30 -37 23z"/>
<path d="M9310 4804 c-11 -12 -10 -18 3 -32 16 -15 18 -15 34 0 13 14 14 20 3
32 -7 9 -16 16 -20 16 -4 0 -13 -7 -20 -16z"/>
<path d="M11818 4807 c-46 -5 -78 -14 -78 -21 0 -19 36 -128 60 -183 l22 -52
62 6 c33 3 64 9 69 13 4 3 -4 53 -18 111 -14 57 -25 112 -25 122 0 9 -3 16 -7
16 -5 -1 -43 -6 -85 -12z"/>
<path d="M9836 4774 c-82 -19 -151 -35 -152 -37 -2 -2 73 -18 167 -36 94 -18
173 -30 176 -27 9 9 -20 129 -32 132 -6 1 -77 -13 -159 -32z"/>
<path d="M9243 4789 c-16 -16 -5 -39 17 -39 25 0 35 18 20 35 -15 18 -22 19
-37 4z"/>
<path d="M9474 4745 c-9 -22 4 -32 49 -40 33 -6 37 -5 37 13 0 24 -4 27 -48
37 -25 5 -33 3 -38 -10z"/>
<path d="M9179 4724 c-18 -22 13 -53 35 -35 16 14 12 37 -9 45 -7 2 -19 -2
-26 -10z"/>
<path d="M9284 4716 c-8 -21 3 -36 27 -36 15 0 20 6 17 22 -4 27 -35 37 -44
14z"/>
<path d="M9655 4709 c-4 -6 -5 -12 -4 -13 23 -17 351 -187 355 -183 8 7 28
126 22 132 -2 3 -76 19 -164 35 -87 17 -169 33 -181 35 -12 3 -25 0 -28 -6z"/>
<path d="M9104 4675 c-4 -9 -2 -21 4 -27 15 -15 44 -1 40 19 -4 23 -36 29 -44
8z"/>
<path d="M9233 4683 c-19 -7 -16 -40 4 -47 21 -8 36 6 31 30 -3 19 -16 25 -35
17z"/>
<path d="M18165 4649 c-165 -21 -310 -41 -322 -44 -40 -9 -25 -25 25 -27 l47
-1 -41 -4 c-40 -4 -42 -6 -52 -46 -6 -23 -14 -64 -18 -91 -6 -44 -5 -48 12
-43 11 3 42 9 71 12 l52 7 6 66 c4 37 9 75 11 84 3 11 -2 18 -18 21 -17 3 -14
5 11 6 25 1 32 -2 28 -14 -4 -8 -9 -49 -13 -91 -7 -72 -6 -76 12 -71 10 3 43
9 72 12 l52 7 0 83 c0 57 -4 85 -12 88 -7 3 5 5 27 5 22 0 31 -3 19 -5 -19 -4
-20 -9 -16 -86 2 -45 5 -83 6 -83 7 -7 136 21 136 30 0 10 -9 51 -25 124 -4
18 -13 22 -43 23 -29 1 -25 3 23 10 33 5 67 7 75 5 8 -2 3 -4 -12 -5 -16 0
-28 -7 -28 -14 0 -16 28 -148 32 -152 2 -1 38 3 81 8 89 12 86 5 46 112 -20
54 -21 55 -62 56 -25 1 2 7 63 15 118 16 130 19 130 34 0 15 -45 11 -375 -31z
m-117 -56 c-10 -2 -26 -2 -35 0 -10 3 -2 5 17 5 19 0 27 -2 18 -5z"/>
<path d="M9640 4676 c0 -5 178 -354 186 -364 6 -9 86 52 117 90 69 85 71 79
-51 144 -59 31 -140 74 -179 96 -40 22 -73 37 -73 34z"/>
<path d="M9394 4655 c-4 -9 -2 -21 4 -27 15 -15 44 -1 40 19 -4 23 -36 29 -44
8z"/>
<path d="M9470 4645 c0 -29 34 -36 44 -9 8 21 -1 34 -25 34 -14 0 -19 -7 -19
-25z"/>
<path d="M9314 4645 c-4 -9 -2 -21 4 -27 15 -15 44 -1 40 19 -4 23 -36 29 -44
8z"/>
<path d="M9610 4655 c0 -3 9 -69 19 -148 11 -78 23 -168 27 -200 7 -59 7 -59
36 -53 16 3 49 15 73 25 l44 19 -91 181 c-78 153 -108 203 -108 176z"/>
<path d="M9526 4517 c-74 -169 -79 -195 -37 -229 30 -26 136 -56 149 -44 7 7
-37 374 -47 393 -4 7 -33 -47 -65 -120z"/>
<path d="M18438 4643 l-37 -4 18 -42 c10 -24 22 -58 26 -76 9 -40 21 -45 90
-35 l54 9 -32 75 c-35 81 -36 82 -119 73z"/>
<path d="M9227 4614 c-12 -12 -8 -42 6 -47 21 -8 39 8 35 29 -3 19 -29 30 -41
18z"/>
<path d="M9386 4594 c-8 -21 1 -34 24 -34 19 0 30 17 23 38 -7 17 -40 15 -47
-4z"/>
<path d="M12462 4594 c4 -21 22 -23 26 -1 2 10 -3 17 -13 17 -10 0 -15 -6 -13
-16z"/>
<path d="M12282 4574 c4 -21 22 -23 26 -1 2 10 -3 17 -13 17 -10 0 -15 -6 -13
-16z"/>
<path d="M12100 4550 c0 -11 7 -20 15 -20 8 0 15 9 15 20 0 11 -7 20 -15 20
-8 0 -15 -9 -15 -20z"/>
<path d="M12503 4563 c-43 -4 -43 -4 -43 -45 0 -37 2 -40 23 -34 12 3 32 6 44
6 15 0 24 9 32 31 14 41 14 49 -1 47 -7 -1 -32 -3 -55 -5z"/>
<path d="M11926 4543 c-12 -12 -6 -33 9 -33 8 0 15 6 15 14 0 17 -14 28 -24
19z"/>
<path d="M12338 4543 c-37 -4 -38 -5 -38 -45 l0 -40 53 7 c75 9 87 14 87 35 0
10 3 25 6 34 6 17 -16 18 -108 9z"/>
<path d="M12182 4523 c-32 -4 -33 -6 -26 -36 9 -45 8 -45 59 -37 25 4 49 6 53
6 4 -1 8 16 10 37 3 36 2 37 -30 35 -18 0 -48 -3 -66 -5z"/>
<path d="M12028 4503 c-16 -2 -28 -6 -28 -7 0 -2 5 -17 11 -35 12 -33 26 -37
100 -25 34 6 36 8 30 38 -6 28 -10 31 -46 32 -22 1 -52 -1 -67 -3z"/>
<path d="M11883 4482 l-23 -7 20 -33 c20 -32 22 -33 68 -26 26 3 49 8 50 10 2
1 1 16 -3 33 -6 29 -10 31 -48 30 -23 -1 -52 -4 -64 -7z"/>
<path d="M12217 4435 c-180 -23 -330 -45 -334 -49 -24 -23 46 -19 351 19 186
24 345 46 353 49 21 8 6 26 -20 25 -12 -1 -169 -20 -350 -44z"/>
<path d="M15312 4465 c-217 -47 -382 -282 -369 -525 10 -185 105 -316 275
-380 92 -35 282 -19 282 24 0 10 -13 12 -48 8 -31 -3 -75 3 -124 17 -234 66
-283 116 -309 323 -19 149 15 260 112 363 71 75 144 109 244 113 166 7 290
-41 362 -141 52 -74 51 -73 68 -51 25 32 17 53 -40 110 -64 64 -167 117 -270
139 -84 18 -101 18 -183 0z"/>
<path d="M18444 4449 c-10 -17 13 -36 27 -22 12 12 4 33 -11 33 -5 0 -12 -5
-16 -11z"/>
<path d="M18271 4430 c-16 -9 -6 -30 15 -30 15 0 20 25 6 34 -4 2 -14 1 -21
-4z"/>
<path d="M18525 4411 c-46 -7 -44 8 -17 -156 10 -55 22 -100 27 -99 6 0 38 4
73 8 l63 8 -7 37 c-4 20 -16 74 -28 121 -23 94 -24 95 -111 81z"/>
<path d="M18087 4403 c-13 -12 -7 -23 13 -23 11 0 20 7 20 15 0 15 -21 21 -33
8z"/>
<path d="M18351 4389 c-30 -5 -55 -10 -56 -12 -4 -5 33 -238 38 -243 3 -4 44
-1 90 6 l83 12 -3 31 c-2 18 -11 74 -20 125 l-15 92 -32 -1 c-17 -1 -55 -5
-85 -10z"/>
<path d="M17904 4379 c-10 -17 13 -36 27 -22 12 12 4 33 -11 33 -5 0 -12 -5
-16 -11z"/>
<path d="M18190 4368 c-35 -5 -65 -10 -67 -12 -5 -4 24 -236 30 -242 3 -3 39
-2 79 2 l73 9 -3 55 c-5 85 -26 193 -37 195 -5 2 -39 -2 -75 -7z"/>
<path d="M15308 4357 c-185 -70 -273 -222 -247 -426 12 -99 34 -154 76 -194
35 -33 189 -93 259 -102 64 -8 134 13 145 42 7 20 6 21 -17 13 -33 -13 -118
-13 -207 1 -123 18 -172 67 -217 218 -40 131 -15 244 75 340 64 69 118 92 230
98 84 5 97 3 146 -19 64 -30 145 -108 176 -169 17 -33 23 -39 29 -26 18 47
-110 186 -197 212 -77 23 -205 29 -251 12z"/>
<path d="M2273 4345 c-176 -48 -323 -188 -374 -357 -32 -103 -24 -222 18 -309
40 -81 111 -154 187 -190 71 -34 159 -47 182 -28 14 11 9 15 -33 27 -55 16
-166 96 -240 175 -67 71 -81 128 -58 240 21 101 39 151 77 210 76 119 246 200
381 182 66 -9 192 -74 256 -131 51 -46 83 -107 102 -193 l11 -50 29 21 c34 25
33 41 -14 138 -20 43 -52 86 -97 130 -130 128 -278 175 -427 135z"/>
<path d="M18021 4348 l-64 -10 7 -113 c3 -62 8 -120 11 -127 4 -11 20 -12 81
-4 l76 9 -8 61 c-4 34 -10 90 -13 125 -3 36 -10 65 -16 66 -5 1 -39 -2 -74 -7z"/>
<path d="M15885 4320 c-18 -20 -17 -20 8 -20 53 0 168 -163 212 -303 71 -222
-9 -428 -203 -530 -142 -75 -257 -85 -347 -33 -25 15 -45 28 -45 29 0 1 -7 20
-15 42 -13 36 -14 37 -15 12 -1 -84 93 -157 202 -157 86 0 269 79 341 148 114
108 164 302 122 467 -38 150 -176 365 -233 365 -5 0 -17 -9 -27 -20z"/>
<path d="M17863 4327 l-73 -9 0 -130 0 -130 33 6 c17 3 56 8 85 12 l52 7 -6
46 c-3 25 -8 82 -12 126 l-7 80 -72 -8z"/>
<path d="M15437 4294 c-12 -12 -8 -42 6 -47 21 -8 39 8 35 29 -3 19 -29 30
-41 18z"/>
<path d="M15332 4258 c4 -30 43 -33 43 -3 0 13 -8 21 -23 23 -20 3 -23 0 -20
-20z"/>
<path d="M15853 4228 c-36 -58 -136 -248 -132 -252 2 -2 59 43 126 101 100 85
121 108 114 121 -14 25 -60 72 -71 72 -5 0 -22 -19 -37 -42z"/>
<path d="M15520 4241 c0 -24 13 -33 34 -25 27 10 20 44 -9 44 -18 0 -25 -5
-25 -19z"/>
<path d="M2239 4227 c-67 -28 -108 -56 -144 -99 -81 -96 -128 -293 -92 -381
19 -44 161 -175 222 -203 63 -30 116 -31 140 -4 18 20 17 20 -23 20 -55 0
-232 89 -266 133 -37 48 -49 110 -41 201 13 155 72 249 193 308 77 38 140 42
237 14 98 -28 156 -73 197 -152 37 -71 49 -109 50 -164 1 -28 3 -30 16 -16 13
13 14 23 2 73 -27 126 -83 194 -209 256 -89 44 -198 49 -282 14z"/>
<path d="M15281 4211 c-7 -5 -11 -17 -9 -27 4 -21 65 -41 81 -25 14 14 1 41
-21 41 -10 0 -22 4 -28 10 -5 5 -15 5 -23 1z"/>
<path d="M15203 4203 c-7 -3 -13 -13 -13 -23 0 -19 17 -30 38 -23 6 3 12 13
12 23 0 19 -17 30 -37 23z"/>
<path d="M15407 4197 c-8 -21 8 -39 29 -35 27 5 25 42 -2 46 -12 2 -24 -3 -27
-11z"/>
<path d="M2377 4157 c-8 -21 8 -39 29 -35 27 5 25 42 -2 46 -12 2 -24 -3 -27
-11z"/>
<path d="M15512 4148 c2 -15 10 -23 23 -23 30 0 27 39 -3 43 -20 3 -23 0 -20
-20z"/>
<path d="M15597 4163 c-12 -12 -7 -41 7 -46 22 -9 41 19 26 38 -14 16 -23 19
-33 8z"/>
<path d="M15857 4062 c-70 -59 -123 -108 -119 -110 10 -3 311 64 318 71 5 4
-41 101 -64 134 -6 9 -45 -18 -135 -95z"/>
<path d="M2224 4135 c-4 -9 -2 -21 4 -27 15 -15 44 -1 40 19 -4 23 -36 29 -44
8z"/>
<path d="M2477 4126 c-3 -8 1 -20 9 -27 12 -10 18 -9 31 3 8 9 12 21 9 27 -10
16 -43 14 -49 -3z"/>
<path d="M2303 4119 c-14 -14 -6 -39 12 -39 7 0 15 -7 19 -15 7 -20 35 -19 43
1 4 10 -4 24 -23 40 -34 27 -36 28 -51 13z"/>
<path d="M18487 4123 c-13 -12 -7 -23 13 -23 11 0 20 7 20 15 0 15 -21 21 -33
8z"/>
<path d="M15217 4097 c-8 -21 8 -39 29 -35 27 5 25 42 -2 46 -12 2 -24 -3 -27
-11z"/>
<path d="M15361 4096 c-16 -19 -6 -36 20 -36 15 0 20 6 17 22 -4 27 -21 33
-37 14z"/>
<path d="M18304 4099 c-10 -17 13 -36 27 -22 12 12 4 33 -11 33 -5 0 -12 -5
-16 -11z"/>
<path d="M18593 4088 l-63 -10 0 -122 c0 -68 2 -125 5 -128 5 -5 116 10 123
17 9 8 14 255 6 254 -5 -1 -37 -6 -71 -11z"/>
<path d="M15437 4084 c-4 -4 -7 -16 -7 -26 0 -14 6 -19 23 -16 14 2 22 10 22
23 0 20 -25 32 -38 19z"/>
<path d="M18125 4081 c-8 -15 3 -31 21 -31 9 0 14 7 12 17 -4 20 -24 28 -33
14z"/>
<path d="M2552 4058 c2 -15 10 -23 23 -23 30 0 27 39 -3 43 -20 3 -23 0 -20
-20z"/>
<path d="M15294 4069 c-3 -6 1 -18 10 -27 15 -15 17 -15 32 0 19 19 11 38 -16
38 -10 0 -22 -5 -26 -11z"/>
<path d="M18416 4067 l-78 -10 6 -96 c10 -139 15 -162 35 -157 9 2 44 8 79 11
l62 7 0 83 c0 90 -9 176 -19 174 -3 -1 -41 -6 -85 -12z"/>
<path d="M2423 4054 c-3 -8 -1 -20 5 -26 16 -16 42 -2 42 22 0 24 -38 28 -47
4z"/>
<path d="M17942 4048 c7 -19 38 -22 38 -4 0 10 -9 16 -21 16 -12 0 -19 -5 -17
-12z"/>
<path d="M2214 4035 c-4 -9 -2 -21 4 -27 15 -15 44 -1 40 19 -4 23 -36 29 -44
8z"/>
<path d="M15517 4044 c-4 -4 -7 -16 -7 -26 0 -14 6 -19 23 -16 14 2 22 10 22
23 0 20 -25 32 -38 19z"/>
<path d="M18220 4043 c-25 -3 -48 -7 -52 -11 -4 -4 1 -59 12 -122 11 -63 20
-119 20 -123 0 -5 12 -6 28 -3 15 3 47 8 71 12 l43 6 -6 67 c-19 195 -16 181
-45 179 -14 -1 -46 -3 -71 -5z"/>
<path d="M15162 4008 c2 -15 10 -23 23 -23 30 0 27 39 -3 43 -20 3 -23 0 -20
-20z"/>
<path d="M15234 4015 c-4 -9 -2 -21 4 -27 15 -15 44 -1 40 19 -4 23 -36 29
-44 8z"/>
<path d="M15613 4014 c-3 -8 -1 -20 5 -26 16 -16 42 -2 42 22 0 24 -38 28 -47
4z"/>
<path d="M18052 4020 c-29 -4 -55 -10 -57 -12 -5 -5 45 -231 54 -240 6 -6 121
9 129 17 4 4 -25 194 -34 228 -6 18 -11 19 -92 7z"/>
<path d="M15452 4008 c-15 -18 1 -41 24 -36 23 4 26 41 3 46 -9 1 -21 -3 -27
-10z"/>
<path d="M2900 4000 c-12 -8 -11 -10 6 -10 30 0 50 -34 74 -127 57 -217 19
-412 -106 -539 -92 -92 -186 -125 -349 -121 -86 2 -107 6 -151 29 -92 48 -137
121 -114 184 9 27 9 28 -5 10 -35 -45 -17 -134 37 -182 52 -48 108 -67 214
-72 173 -8 306 37 396 134 41 44 95 141 115 203 36 117 12 396 -42 478 -16 24
-49 30 -75 13z"/>
<path d="M15374 3996 c-8 -21 3 -36 27 -36 15 0 20 6 17 22 -4 27 -35 37 -44
14z"/>
<path d="M17881 3999 c-35 -4 -66 -10 -69 -13 -7 -8 17 -91 50 -172 l28 -71
68 9 c37 5 68 10 68 11 1 1 -10 56 -25 122 -19 81 -32 120 -42 121 -8 1 -43
-2 -78 -7z"/>
<path d="M2128 3988 c-8 -21 2 -38 22 -38 19 0 30 17 23 38 -3 6 -13 12 -23
12 -10 0 -20 -6 -22 -12z"/>
<path d="M2281 3991 c-19 -12 -6 -41 19 -41 16 0 21 5 18 22 -3 25 -17 32 -37
19z"/>
<path d="M2340 3985 c-15 -18 -5 -35 20 -35 10 0 22 5 25 10 7 11 -12 40 -25
40 -4 0 -13 -7 -20 -15z"/>
<path d="M2504 3985 c-4 -9 -2 -21 4 -27 15 -15 44 -1 40 19 -4 23 -36 29 -44
8z"/>
<path d="M15898 3967 c-76 -17 -138 -33 -138 -37 0 -7 332 -71 338 -65 2 2 -2
32 -10 67 -11 51 -17 63 -33 64 -11 1 -82 -12 -157 -29z"/>
<path d="M15304 3975 c-8 -19 3 -35 26 -35 19 0 30 17 23 38 -6 17 -42 15 -49
-3z"/>
<path d="M2194 3955 c-4 -9 -2 -21 4 -27 15 -15 44 -1 40 19 -4 23 -36 29 -44
8z"/>
<path d="M2585 3956 c-19 -14 -19 -16 -2 -33 15 -15 19 -16 32 -2 13 12 13 18
2 32 -11 16 -14 16 -32 3z"/>
<path d="M2402 3928 c4 -30 43 -33 43 -3 0 13 -8 21 -23 23 -20 3 -23 0 -20
-20z"/>
<path d="M2812 3898 c-81 -61 -194 -164 -172 -156 8 3 80 27 160 53 80 26 146
49 148 50 1 1 -5 25 -14 53 -12 37 -22 52 -35 52 -10 0 -49 -24 -87 -52z"/>
<path d="M15540 3932 c0 -24 4 -27 48 -37 25 -5 33 -3 38 10 9 22 -4 32 -48
40 -34 6 -38 5 -38 -13z"/>
<path d="M15244 3916 c-8 -21 13 -46 32 -39 20 8 13 47 -9 51 -9 2 -20 -4 -23
-12z"/>
<path d="M15354 3905 c-4 -9 -2 -21 4 -27 15 -15 44 -1 40 19 -4 23 -36 29
-44 8z"/>
<path d="M2251 3896 c-9 -11 -8 -18 5 -31 15 -15 18 -15 32 -1 13 12 13 18 2
30 -15 20 -24 20 -39 2z"/>
<path d="M15722 3898 c6 -17 341 -198 350 -189 11 9 31 122 24 129 -6 5 -341
72 -364 72 -8 0 -12 -6 -10 -12z"/>
<path d="M2327 3894 c-4 -4 -7 -16 -7 -26 0 -14 6 -19 23 -16 14 2 22 10 22
23 0 20 -25 32 -38 19z"/>
<path d="M2394 3865 c-4 -9 -2 -21 4 -27 15 -15 44 -1 40 19 -4 23 -36 29 -44
8z"/>
<path d="M2460 3861 c0 -27 19 -36 37 -18 18 18 9 37 -18 37 -12 0 -19 -7 -19
-19z"/>
<path d="M15172 3858 c2 -15 10 -23 23 -23 30 0 27 39 -3 43 -20 3 -23 0 -20
-20z"/>
<path d="M15294 3865 c-4 -9 -2 -21 4 -27 15 -15 44 -1 40 19 -4 23 -36 29
-44 8z"/>
<path d="M2168 3858 c-8 -21 2 -38 22 -38 19 0 30 17 23 38 -3 6 -13 12 -23
12 -10 0 -20 -6 -22 -12z"/>
<path d="M15718 3853 c4 -10 46 -93 92 -184 l84 -166 32 19 c56 33 149 146
133 162 -6 6 -340 186 -345 186 -3 0 -1 -8 4 -17z"/>
<path d="M2087 3854 c-4 -4 -7 -16 -7 -26 0 -13 7 -18 26 -18 21 0 25 4 22 22
-3 23 -27 35 -41 22z"/>
<path d="M15387 3853 c-11 -10 -8 -41 4 -49 6 -3 18 1 27 9 13 13 13 19 2 31
-14 17 -23 20 -33 9z"/>
<path d="M15462 3838 c2 -15 10 -23 23 -23 30 0 27 39 -3 43 -20 3 -23 0 -20
-20z"/>
<path d="M15534 3849 c-3 -6 1 -18 10 -27 16 -16 18 -16 31 2 8 10 12 23 9 27
-7 13 -42 11 -50 -2z"/>
<path d="M15680 3845 c0 -17 52 -400 55 -403 5 -5 118 37 129 48 8 8 -16 63
-79 185 -77 149 -105 195 -105 170z"/>
<path d="M15591 3702 c-67 -152 -73 -188 -38 -219 46 -42 157 -60 157 -25 -1
35 -47 372 -52 377 -3 3 -33 -57 -67 -133z"/>
<path d="M2270 3815 c-10 -12 -10 -18 0 -29 16 -20 42 -8 38 17 -4 26 -21 32
-38 12z"/>
<path d="M2557 3824 c-4 -4 -7 -16 -7 -26 0 -14 6 -19 23 -16 14 2 22 10 22
23 0 20 -25 32 -38 19z"/>
<path d="M2775 3767 l-150 -50 140 -23 c77 -13 155 -26 173 -29 l32 -6 0 49
c0 74 -10 112 -29 111 -9 0 -83 -23 -166 -52z"/>
<path d="M2194 3796 c-8 -21 3 -36 27 -36 15 0 20 6 17 22 -4 27 -35 37 -44
14z"/>
<path d="M15294 3795 c-4 -9 -2 -21 4 -27 15 -15 44 -1 40 19 -4 23 -36 29
-44 8z"/>
<path d="M18525 3801 c-8 -15 3 -31 21 -31 9 0 14 7 12 17 -4 20 -24 28 -33
14z"/>
<path d="M15453 3784 c-3 -8 -1 -20 5 -26 16 -16 42 -2 42 22 0 24 -38 28 -47
4z"/>
<path d="M2463 3783 c-21 -8 -15 -40 12 -57 54 -35 80 -10 35 34 -17 16 -32
30 -33 29 -1 0 -8 -3 -14 -6z"/>
<path d="M18351 3776 c-12 -14 -5 -26 16 -26 15 0 18 26 4 34 -5 3 -14 0 -20
-8z"/>
<path d="M18166 3751 c-7 -11 18 -33 27 -24 4 3 7 12 7 20 0 15 -26 18 -34 4z"/>
<path d="M18558 3753 c-25 -4 -28 -9 -28 -41 l0 -37 44 3 c42 4 45 6 54 43 10
38 9 39 -17 38 -14 -1 -38 -4 -53 -6z"/>
<path d="M2170 3734 c-11 -12 -10 -18 3 -31 22 -23 52 0 36 28 -12 23 -22 24
-39 3z"/>
<path d="M2264 3739 c-8 -14 21 -43 35 -35 6 4 11 16 11 27 0 21 -34 27 -46 8z"/>
<path d="M18430 3736 l-65 -11 3 -34 c1 -19 3 -36 5 -37 1 -1 32 3 70 8 l67
10 0 39 c0 21 -3 39 -7 38 -5 -1 -37 -6 -73 -13z"/>
<path d="M17987 3725 c-8 -18 11 -31 25 -17 11 11 3 32 -12 32 -4 0 -10 -7
-13 -15z"/>
<path d="M2344 3715 c-4 -9 -2 -21 4 -27 15 -15 44 -1 40 19 -4 23 -36 29 -44
8z"/>
<path d="M18241 3713 c-20 -4 -22 -9 -17 -36 3 -17 8 -33 11 -35 2 -2 29 -1
60 3 55 6 55 7 55 41 0 34 -1 34 -42 33 -24 -1 -54 -4 -67 -6z"/>
<path d="M18127 3700 c-27 -5 -51 -10 -53 -13 -2 -2 1 -18 7 -36 l12 -33 56 7
c31 4 58 9 60 10 8 9 -11 75 -22 74 -7 -1 -34 -5 -60 -9z"/>
<path d="M2413 3684 c-6 -17 14 -36 32 -31 6 2 11 13 13 25 3 17 -2 22 -18 22
-11 0 -23 -7 -27 -16z"/>
<path d="M2680 3668 c19 -12 86 -55 148 -95 62 -40 114 -73 116 -73 6 0 26 88
26 114 0 30 1 29 -160 56 -162 26 -175 26 -130 -2z"/>
<path d="M17980 3681 c-48 -6 -51 -14 -24 -55 13 -21 21 -23 62 -18 26 2 49 6
50 8 9 7 -21 74 -31 72 -7 0 -32 -4 -57 -7z"/>
<path d="M2320 3665 c-15 -17 -5 -35 20 -35 22 0 33 23 17 39 -15 15 -22 14
-37 -4z"/>
<path d="M2614 3665 c3 -9 61 -81 128 -161 136 -162 121 -157 176 -65 14 25
22 46 17 48 -6 2 -77 46 -159 98 -81 52 -153 95 -158 95 -6 0 -7 -7 -4 -15z"/>
<path d="M18273 3627 c-236 -30 -323 -45 -323 -54 0 -17 16 -16 205 7 208 26
220 28 355 45 63 8 123 15 133 15 9 0 17 7 17 15 0 20 -12 20 -387 -28z"/>
<path d="M2551 3629 c-6 -13 -29 -98 -51 -189 -23 -91 -43 -173 -46 -182 -5
-16 3 -18 70 -18 75 0 76 0 76 26 0 40 -31 379 -36 383 -2 2 -8 -7 -13 -20z"/>
<path d="M2590 3624 c0 -16 7 -101 15 -189 8 -88 15 -168 15 -178 0 -16 5 -17
33 -12 59 13 132 45 165 73 l33 27 -126 150 c-70 83 -129 152 -131 154 -2 2
-4 -9 -4 -25z"/>
<path d="M2410 3534 c-61 -60 -114 -120 -117 -133 -8 -33 22 -85 66 -114 76
-51 70 -58 124 155 26 105 45 193 43 196 -3 3 -56 -44 -116 -104z"/>
<path d="M10014 2690 c9 -77 26 -126 69 -192 50 -79 121 -137 241 -196 115
-56 186 -114 217 -174 11 -21 35 -80 53 -132 19 -52 42 -107 51 -123 15 -27
15 -24 9 57 -19 276 -72 358 -305 472 -119 59 -144 76 -197 132 -36 39 -75 95
-98 141 -20 41 -39 75 -42 75 -2 0 -2 -27 2 -60z"/>
<path d="M10243 2637 c4 -10 7 -23 7 -27 0 -28 73 -87 150 -123 162 -76 205
-120 252 -260 23 -71 28 -77 33 -54 10 39 -3 135 -26 187 -24 53 -80 115 -129
139 -19 10 -73 31 -119 46 -62 20 -96 39 -130 69 -26 24 -42 33 -38 23z"/>
<path d="M4022 2388 c4 -10 87 -14 361 -16 313 -2 357 0 357 13 0 13 -45 15
-361 15 -284 0 -360 -3 -357 -12z"/>
<path d="M4021 2342 c-8 -16 -41 -131 -41 -146 0 -3 31 -6 70 -6 68 0 70 1 75
28 4 15 12 53 19 85 l14 57 -64 0 c-50 0 -65 -4 -73 -18z"/>
<path d="M4157 2285 c-10 -42 -17 -80 -17 -85 0 -6 31 -10 69 -10 l70 0 6 48
c3 26 8 64 10 85 l5 37 -63 0 -64 0 -16 -75z"/>
<path d="M4317 2353 c-3 -5 -8 -43 -12 -85 l-7 -78 71 0 71 0 0 54 c0 29 -3
68 -6 85 -6 30 -8 31 -60 31 -29 0 -55 -3 -57 -7z"/>
<path d="M4454 2299 c3 -34 6 -73 6 -85 0 -23 2 -24 85 -24 l85 0 -6 28 c-10
46 -25 106 -30 125 -4 14 -17 17 -76 17 l-71 0 7 -61z"/>
<path d="M4610 2353 c1 -5 9 -42 18 -83 l18 -75 62 -3 c34 -2 62 0 62 4 0 4
-9 43 -21 86 l-21 78 -59 0 c-32 0 -59 -3 -59 -7z"/>
<path d="M10096 2304 c-3 -9 -6 -38 -6 -64 0 -41 5 -55 30 -84 30 -33 55 -44
166 -75 94 -25 157 -100 199 -234 l22 -72 8 38 c14 70 0 161 -32 219 -44 78
-102 115 -213 138 -106 21 -133 40 -149 106 -12 48 -16 52 -25 28z"/>
<path d="M4443 2164 c-7 -19 2 -28 22 -21 19 8 19 23 0 31 -9 3 -18 -1 -22
-10z"/>
<path d="M4080 2155 c0 -10 7 -15 18 -13 21 4 19 22 -2 26 -10 2 -16 -3 -16
-13z"/>
<path d="M4260 2155 c0 -10 7 -15 18 -13 21 4 19 22 -2 26 -10 2 -16 -3 -16
-13z"/>
<path d="M4620 2154 c0 -9 7 -14 17 -12 25 5 28 28 4 28 -12 0 -21 -6 -21 -16z"/>
<path d="M3956 2093 c-11 -50 -26 -167 -26 -200 l0 -33 81 5 c45 2 83 5 84 7
1 2 5 58 8 126 l5 122 -73 0 c-72 0 -74 -1 -79 -27z"/>
<path d="M4127 2113 c-4 -3 -7 -61 -7 -127 l0 -121 75 0 75 0 0 112 c0 61 3
118 6 127 5 14 -5 16 -68 16 -41 0 -78 -3 -81 -7z"/>
<path d="M4290 1993 l0 -128 80 0 80 0 0 128 0 127 -80 0 -80 0 0 -127z"/>
<path d="M4469 2116 c-2 -2 -3 -60 -1 -128 l3 -123 77 1 c42 0 83 1 90 2 13 2
17 108 6 200 l-7 52 -82 0 c-45 0 -84 -2 -86 -4z"/>
<path d="M4664 1990 l9 -130 26 4 c14 2 46 5 70 5 l44 1 -6 88 c-4 48 -10 104
-13 125 l-7 37 -66 0 -66 0 9 -130z"/>
<path d="M1130 2038 c-39 -63 -54 -129 -54 -223 0 -102 19 -160 81 -261 116
-187 125 -226 89 -407 -14 -71 -26 -143 -26 -160 0 -26 6 -18 41 54 70 143 89
202 89 278 0 95 -17 144 -95 268 -38 59 -77 133 -88 163 -23 65 -33 216 -19
278 5 23 8 42 6 42 -2 0 -13 -15 -24 -32z"/>
<path d="M16080 1912 c0 -59 28 -152 63 -211 48 -80 122 -142 249 -207 62 -31
126 -66 141 -78 43 -31 82 -100 130 -230 53 -138 72 -166 63 -91 -3 28 -8 75
-11 105 -16 146 -65 251 -148 311 -23 17 -93 56 -155 86 -65 32 -134 74 -163
101 -59 53 -118 138 -144 205 -10 26 -19 47 -21 47 -2 0 -4 -17 -4 -38z"/>
<path d="M1282 1835 c-16 -57 -3 -102 62 -208 30 -51 62 -109 71 -129 21 -51
19 -139 -4 -223 -11 -38 -18 -71 -16 -73 4 -5 40 47 65 98 16 31 25 69 28 121
4 66 1 84 -20 130 -14 30 -47 81 -75 114 -71 86 -84 108 -92 162 l-8 48 -11
-40z"/>
<path d="M4080 1830 c0 -11 7 -20 15 -20 8 0 15 9 15 20 0 11 -7 20 -15 20 -8
0 -15 -9 -15 -20z"/>
<path d="M4263 1835 c-7 -20 2 -29 21 -22 9 4 13 13 10 22 -8 19 -23 19 -31 0z"/>
<path d="M4444 1839 c-10 -17 13 -36 27 -22 12 12 4 33 -11 33 -5 0 -12 -5
-16 -11z"/>
<path d="M4624 1839 c-10 -17 13 -36 27 -22 12 12 4 33 -11 33 -5 0 -12 -5
-16 -11z"/>
<path d="M16310 1839 c0 -21 24 -67 48 -93 15 -15 69 -48 119 -71 155 -73 198
-118 245 -258 21 -65 27 -74 30 -51 6 54 -10 162 -30 200 -42 81 -115 132
-252 175 -55 18 -86 35 -117 65 -24 22 -43 37 -43 33z"/>
<path d="M3942 1725 c5 -36 17 -91 26 -123 l18 -57 73 -3 c72 -3 73 -3 68 20
-3 13 -8 55 -12 93 -3 39 -8 85 -11 103 l-5 32 -83 0 -83 0 9 -65z"/>
<path d="M4124 1738 c3 -29 8 -86 12 -125 l7 -73 68 0 69 0 0 79 c0 43 -3 99
-6 125 l-7 46 -75 0 -74 0 6 -52z"/>
<path d="M4290 1748 c0 -24 3 -80 7 -125 l6 -83 67 0 67 0 7 77 c3 42 6 98 6
125 l0 48 -80 0 -80 0 0 -42z"/>
<path d="M4466 1738 c-3 -29 -6 -86 -6 -125 l0 -73 79 0 79 0 6 30 c3 17 9 73
12 125 l7 95 -85 0 -85 0 -7 -52z"/>
<path d="M4651 1677 c-6 -62 -11 -119 -11 -125 0 -8 20 -12 58 -12 l59 0 11
38 c9 30 42 194 42 208 0 2 -33 4 -74 4 l-73 0 -12 -113z"/>
<path d="M978 1640 c-31 -23 -58 -78 -58 -115 0 -37 23 -77 80 -140 66 -72 82
-107 88 -186 4 -59 -6 -114 -35 -196 -4 -11 8 -5 30 16 53 50 81 121 81 206 0
91 -25 139 -115 226 -61 58 -69 70 -69 102 0 21 7 53 14 72 17 41 17 41 -16
15z"/>
<path d="M4080 1500 c0 -11 7 -20 15 -20 8 0 15 9 15 20 0 11 -7 20 -15 20 -8
0 -15 -9 -15 -20z"/>
<path d="M4260 1506 c0 -21 21 -31 30 -15 5 7 6 17 4 21 -9 14 -34 9 -34 -6z"/>
<path d="M4444 1509 c-10 -17 13 -36 27 -22 12 12 4 33 -11 33 -5 0 -12 -5
-16 -11z"/>
<path d="M4624 1509 c-10 -17 13 -36 27 -22 12 12 4 33 -11 33 -5 0 -12 -5
-16 -11z"/>
<path d="M16164 1485 c-4 -22 -8 -46 -7 -52 0 -7 1 -22 2 -34 2 -42 62 -85
157 -114 49 -15 104 -39 123 -52 43 -33 87 -104 107 -173 9 -30 19 -62 21 -70
11 -34 25 38 21 106 -7 108 -62 194 -155 243 -13 6 -61 19 -107 27 -98 18
-121 36 -140 110 l-13 49 -9 -40z"/>
<path d="M4020 1460 c0 -4 5 -21 11 -39 10 -30 13 -31 65 -31 57 0 63 7 45 55
-6 16 -18 20 -64 20 -32 1 -57 -2 -57 -5z"/>
<path d="M4160 1453 c1 -56 9 -63 74 -63 l62 0 -4 35 c-2 19 -5 35 -6 36 0 0
-29 3 -63 6 -57 4 -63 3 -63 -14z"/>
<path d="M4310 1430 l0 -40 59 0 c59 0 59 0 64 33 2 17 3 35 0 40 -2 4 -31 7
-64 7 l-59 0 0 -40z"/>
<path d="M4463 1464 c-7 -3 -13 -21 -13 -40 l0 -34 69 0 c39 0 72 3 74 8 3 4
7 21 8 37 l4 30 -65 2 c-36 1 -71 -1 -77 -3z"/>
<path d="M4638 1463 c-10 -2 -18 -10 -18 -16 0 -7 -3 -22 -6 -34 -6 -22 -3
-23 43 -23 46 0 50 2 61 33 7 18 12 36 12 40 0 8 -64 8 -92 0z"/>
<path d="M4022 1358 c4 -10 87 -14 361 -16 313 -2 357 0 357 13 0 13 -45 15
-361 15 -284 0 -360 -3 -357 -12z"/>
</g>
</svg>
